<?xml version="1.0" encoding="UTF-8"?>
<!DOCTYPE svg PUBLIC "-//W3C//DTD SVG 1.1//EN" "http://www.w3.org/Graphics/SVG/1.1/DTD/svg11.dtd">
<svg xmlns="http://www.w3.org/2000/svg" version="1.1" width="5224px" height="5144px" style="shape-rendering:geometricPrecision; text-rendering:geometricPrecision; image-rendering:optimizeQuality; fill-rule:evenodd; clip-rule:evenodd" xmlns:xlink="http://www.w3.org/1999/xlink">
<g><path style="opacity:1" fill="#191f3e" d="M 2537.5,-0.5 C 2586.83,-0.5 2636.17,-0.5 2685.5,-0.5C 3204.7,16.4788 3678.36,170.312 4106.5,461C 4131.96,478.643 4156.96,496.81 4181.5,515.5C 4160.24,535.704 4141.07,557.704 4124,581.5C 4096.38,622.391 4072.04,665.391 4051,710.5C 4033.51,748.483 4016.84,786.816 4001,825.5C 3969.94,904.009 3939.27,982.676 3909,1061.5C 3866.24,1172.08 3818.24,1280.41 3765,1386.5C 3705.93,1502.72 3634.93,1610.72 3552,1710.5C 3430.29,1852.88 3284.46,1963.38 3114.5,2042C 2997.04,2096.27 2877.04,2144.27 2754.5,2186C 2583.25,2243.64 2410.58,2296.64 2236.5,2345C 2106.4,2381.48 1976.06,2417.15 1845.5,2452C 1790.84,2466.33 1737.17,2483.66 1684.5,2504C 1659.59,2513.78 1636.93,2527.11 1616.5,2544C 1593.3,2566.3 1589.13,2591.8 1604,2620.5C 1613.67,2635.51 1625.5,2648.67 1639.5,2660C 1676.46,2686.99 1716.13,2709.66 1758.5,2728C 1819.81,2754.55 1882.15,2778.55 1945.5,2800C 2083.4,2845.39 2221.73,2889.39 2360.5,2932C 2468.64,2965.6 2574.97,3003.93 2679.5,3047C 2733.56,3069.69 2784.9,3097.03 2833.5,3129C 2857.5,3145 2878.34,3164.5 2896,3187.5C 2924,3226.12 2923.33,3264.12 2894,3301.5C 2881.41,3315.42 2867.58,3327.92 2852.5,3339C 2810.43,3366.7 2765.77,3389.7 2718.5,3408C 2622.3,3444.55 2524.3,3475.55 2424.5,3501C 2301,3532.63 2177,3561.96 2052.5,3589C 1809.59,3640.05 1566.59,3690.71 1323.5,3741C 1104.9,3786.52 887.233,3836.52 670.5,3891C 584.134,3912.84 498.467,3936.67 413.5,3962.5C 170.391,3589.01 33.8913,3179.01 4,2732.5C 2.34249,2703.01 0.842492,2673.68 -0.5,2644.5C -0.5,2596.17 -0.5,2547.83 -0.5,2499.5C 16.9714,1995.6 167.805,1536.6 452,1122.5C 718.704,742.465 1061.2,452.298 1479.5,252C 1814.6,94.5597 2167.26,10.3931 2537.5,-0.5 Z"/></g>
<g><path style="opacity:1" fill="#9ca1ad" d="M 2398.5,446.5 C 2397.83,446.167 2397.17,445.833 2396.5,445.5C 2396.7,436.594 2397.37,436.927 2398.5,446.5 Z"/></g>
<g><path style="opacity:1" fill="#f8f8f8" d="M 2396.5,445.5 C 2397.17,445.833 2397.83,446.167 2398.5,446.5C 2407.07,506.905 2440.74,545.405 2499.5,562C 2507.1,563.544 2514.76,564.544 2522.5,565C 2461.71,572.131 2421.54,604.631 2402,662.5C 2400.19,669.746 2399.02,677.079 2398.5,684.5C 2397.83,684.5 2397.17,684.5 2396.5,684.5C 2387.53,624.371 2353.86,585.871 2295.5,569C 2287.81,567.6 2280.14,566.267 2272.5,565C 2323.01,560.454 2360.17,535.954 2384,491.5C 2390.66,476.846 2394.83,461.513 2396.5,445.5 Z"/></g>
<g><path style="opacity:1" fill="#f9f9f9" d="M 4181.5,515.5 C 4498.96,751.101 4749.8,1043.1 4934,1391.5C 5044.54,1602.93 5124.04,1825.6 5172.5,2059.5C 5074.79,2124.36 4971.13,2178.86 4861.5,2223C 4735.34,2273.39 4606.67,2316.39 4475.5,2352C 4344.46,2387.43 4212.46,2418.76 4079.5,2446C 3940.93,2474.39 3801.93,2500.39 3662.5,2524C 3364.93,2570.32 3065.6,2597.66 2764.5,2606C 2609.53,2610.32 2454.53,2612.99 2299.5,2614C 2238.35,2614.09 2177.35,2617.09 2116.5,2623C 2099.71,2624.53 2083.71,2628.86 2068.5,2636C 2059.92,2642.53 2059.26,2649.86 2066.5,2658C 2075.84,2665.01 2085.84,2671.01 2096.5,2676C 2111.01,2682.39 2125.67,2688.39 2140.5,2694C 2187.24,2710.47 2234.24,2726.13 2281.5,2741C 2448.59,2792.69 2616.25,2842.35 2784.5,2890C 2843.82,2907.11 2901.82,2927.77 2958.5,2952C 3043.86,2992.16 3124.86,3039.16 3201.5,3093C 3235.76,3117.58 3266.93,3145.75 3295,3177.5C 3362.99,3260.41 3359.32,3340.08 3284,3416.5C 3276.5,3423.33 3269,3430.17 3261.5,3437C 3246.37,3449.4 3230.7,3461.06 3214.5,3472C 3081.78,3554.04 2946.45,3632.04 2808.5,3706C 2642.15,3794.51 2475.48,3882.51 2308.5,3970C 2167.9,4043.96 2029.23,4120.96 1892.5,4201C 1750.11,4284.44 1613.44,4376.1 1482.5,4476C 1401.84,4538.64 1326,4607.14 1255,4681.5C 1237.58,4700.41 1220.75,4719.74 1204.5,4739.5C 885.13,4537.47 621.464,4278.47 413.5,3962.5C 498.467,3936.67 584.134,3912.84 670.5,3891C 887.233,3836.52 1104.9,3786.52 1323.5,3741C 1566.59,3690.71 1809.59,3640.05 2052.5,3589C 2177,3561.96 2301,3532.63 2424.5,3501C 2524.3,3475.55 2622.3,3444.55 2718.5,3408C 2765.77,3389.7 2810.43,3366.7 2852.5,3339C 2867.58,3327.92 2881.41,3315.42 2894,3301.5C 2923.33,3264.12 2924,3226.12 2896,3187.5C 2878.34,3164.5 2857.5,3145 2833.5,3129C 2784.9,3097.03 2733.56,3069.69 2679.5,3047C 2574.97,3003.93 2468.64,2965.6 2360.5,2932C 2221.73,2889.39 2083.4,2845.39 1945.5,2800C 1882.15,2778.55 1819.81,2754.55 1758.5,2728C 1716.13,2709.66 1676.46,2686.99 1639.5,2660C 1625.5,2648.67 1613.67,2635.51 1604,2620.5C 1589.13,2591.8 1593.3,2566.3 1616.5,2544C 1636.93,2527.11 1659.59,2513.78 1684.5,2504C 1737.17,2483.66 1790.84,2466.33 1845.5,2452C 1976.06,2417.15 2106.4,2381.48 2236.5,2345C 2410.58,2296.64 2583.25,2243.64 2754.5,2186C 2877.04,2144.27 2997.04,2096.27 3114.5,2042C 3284.46,1963.38 3430.29,1852.88 3552,1710.5C 3634.93,1610.72 3705.93,1502.72 3765,1386.5C 3818.24,1280.41 3866.24,1172.08 3909,1061.5C 3939.27,982.676 3969.94,904.009 4001,825.5C 4016.84,786.816 4033.51,748.483 4051,710.5C 4072.04,665.391 4096.38,622.391 4124,581.5C 4141.07,557.704 4160.24,535.704 4181.5,515.5 Z"/></g>
<g><path style="opacity:1" fill="#a0a4b0" d="M 2396.5,684.5 C 2397.17,684.5 2397.83,684.5 2398.5,684.5C 2397.19,695.055 2396.52,695.055 2396.5,684.5 Z"/></g>
<g><path style="opacity:1" fill="#f8f8f9" d="M 1641.5,1608.5 C 1642.17,1609.17 1642.83,1609.83 1643.5,1610.5C 1565.08,1618.61 1509.91,1658.61 1478,1730.5C 1469.89,1751.41 1465.22,1773.07 1464,1795.5C 1458.31,1717.86 1420.81,1661.69 1351.5,1627C 1330.52,1617.42 1308.52,1611.92 1285.5,1610.5C 1285.83,1609.83 1286.17,1609.17 1286.5,1608.5C 1351.21,1602.24 1401.04,1571.91 1436,1517.5C 1452.92,1488.82 1462.25,1457.82 1464,1424.5C 1469.28,1494.27 1501.44,1547.43 1560.5,1584C 1585.7,1598.21 1612.7,1606.38 1641.5,1608.5 Z"/></g>
<g><path style="opacity:1" fill="#f8f8f8" d="M 2651.5,1671.5 C 2650.83,1672.83 2650.17,1674.17 2649.5,1675.5C 2643.08,1623.25 2615.41,1587.41 2566.5,1568C 2554.75,1564.38 2542.75,1562.04 2530.5,1561C 2581.4,1556.48 2617.9,1531.32 2640,1485.5C 2646.01,1471.1 2649.34,1456.1 2650,1440.5C 2654.39,1492.18 2679.89,1529.02 2726.5,1551C 2740.28,1556.69 2754.61,1560.03 2769.5,1561C 2711.89,1566.61 2673.72,1596.78 2655,1651.5C 2653.14,1658.05 2651.97,1664.72 2651.5,1671.5 Z"/></g>
<g><path style="opacity:1" fill="#63687e" d="M 1286.5,1608.5 C 1286.17,1609.17 1285.83,1609.83 1285.5,1610.5C 1280.82,1610.67 1276.15,1610.5 1271.5,1610C 1276.42,1608.75 1281.42,1608.25 1286.5,1608.5 Z"/></g>
<g><path style="opacity:1" fill="#64697f" d="M 1641.5,1608.5 C 1646.58,1608.25 1651.58,1608.75 1656.5,1610C 1652.18,1610.5 1647.85,1610.67 1643.5,1610.5C 1642.83,1609.83 1642.17,1609.17 1641.5,1608.5 Z"/></g>
<g><path style="opacity:1" fill="#999ca9" d="M 2651.5,1671.5 C 2651.54,1674.91 2651.04,1678.24 2650,1681.5C 2649.5,1679.53 2649.34,1677.53 2649.5,1675.5C 2650.17,1674.17 2650.83,1672.83 2651.5,1671.5 Z"/></g>
<g><path style="opacity:1" fill="#444b76" d="M 5172.5,2059.5 C 5201.95,2204.86 5218.95,2351.53 5223.5,2499.5C 5223.5,2547.5 5223.5,2595.5 5223.5,2643.5C 5205.52,3156.28 5050.02,3621.95 4757,4040.5C 4487.89,4416.31 4144.39,4702.47 3726.5,4899C 3396.17,5051.16 3049.17,5132.66 2685.5,5143.5C 2636.17,5143.5 2586.83,5143.5 2537.5,5143.5C 2083.28,5129.37 1660.28,5007.87 1268.5,4779C 1246.97,4766.07 1225.64,4752.91 1204.5,4739.5C 1220.75,4719.74 1237.58,4700.41 1255,4681.5C 1326,4607.14 1401.84,4538.64 1482.5,4476C 1613.44,4376.1 1750.11,4284.44 1892.5,4201C 2029.23,4120.96 2167.9,4043.96 2308.5,3970C 2475.48,3882.51 2642.15,3794.51 2808.5,3706C 2946.45,3632.04 3081.78,3554.04 3214.5,3472C 3230.7,3461.06 3246.37,3449.4 3261.5,3437C 3269,3430.17 3276.5,3423.33 3284,3416.5C 3359.32,3340.08 3362.99,3260.41 3295,3177.5C 3266.93,3145.75 3235.76,3117.58 3201.5,3093C 3124.86,3039.16 3043.86,2992.16 2958.5,2952C 2901.82,2927.77 2843.82,2907.11 2784.5,2890C 2616.25,2842.35 2448.59,2792.69 2281.5,2741C 2234.24,2726.13 2187.24,2710.47 2140.5,2694C 2125.67,2688.39 2111.01,2682.39 2096.5,2676C 2085.84,2671.01 2075.84,2665.01 2066.5,2658C 2059.26,2649.86 2059.92,2642.53 2068.5,2636C 2083.71,2628.86 2099.71,2624.53 2116.5,2623C 2177.35,2617.09 2238.35,2614.09 2299.5,2614C 2454.53,2612.99 2609.53,2610.32 2764.5,2606C 3065.6,2597.66 3364.93,2570.32 3662.5,2524C 3801.93,2500.39 3940.93,2474.39 4079.5,2446C 4212.46,2418.76 4344.46,2387.43 4475.5,2352C 4606.67,2316.39 4735.34,2273.39 4861.5,2223C 4971.13,2178.86 5074.79,2124.36 5172.5,2059.5 Z"/></g>
<g><path style="opacity:1" fill="#f8f8f8" d="M 1194.5,2720.5 C 1194.83,2721.17 1195.17,2721.83 1195.5,2722.5C 1140.41,2729.3 1103.91,2758.96 1086,2811.5C 1083.69,2820.72 1082.02,2830.05 1081,2839.5C 1076.32,2792.61 1053.49,2757.77 1012.5,2735C 996.959,2727.7 980.626,2723.36 963.5,2722C 1033.79,2711.71 1072.96,2671.21 1081,2600.5C 1086.44,2661.26 1118.27,2700.43 1176.5,2718C 1182.41,2719.55 1188.41,2720.38 1194.5,2720.5 Z"/></g>
<g><path style="opacity:1" fill="#5f647a" d="M 1194.5,2720.5 C 1198.58,2720.34 1202.58,2720.84 1206.5,2722C 1202.85,2722.5 1199.18,2722.67 1195.5,2722.5C 1195.17,2721.83 1194.83,2721.17 1194.5,2720.5 Z"/></g>
</svg>
